<?xml version="1.0" standalone="no"?>
<!DOCTYPE svg PUBLIC "-//W3C//DTD SVG 20010904//EN"
 "http://www.w3.org/TR/2001/REC-SVG-20010904/DTD/svg10.dtd">
<svg version="1.0" xmlns="http://www.w3.org/2000/svg"
 width="512.000000pt" height="512.000000pt" viewBox="0 0 512.000000 512.000000"
 preserveAspectRatio="xMidYMid meet">
<metadata>
Created by potrace 1.16, written by Peter Selinger 2001-2019
</metadata>
<g transform="translate(0.000000,512.000000) scale(0.100000,-0.100000)"
fill="#000000" stroke="none">
<path d="M2496 4210 c-39 -34 -176 -190 -261 -295 -155 -192 -332 -500 -404
-701 l-33 -91 -103 63 c-190 116 -371 200 -594 276 -198 67 -213 58 -242 -144
-29 -198 -36 -524 -15 -707 16 -139 68 -366 100 -442 l15 -36 -152 -7 c-305
-14 -587 -53 -624 -89 -40 -37 -31 -84 46 -241 145 -295 317 -500 556 -660
415 -280 1032 -341 1660 -164 93 26 115 29 150 20 22 -5 94 -24 160 -41 415
-108 875 -104 1220 10 406 134 707 408 916 835 106 214 97 248 -69 278 -130
24 -328 44 -504 52 l-157 6 15 37 c32 76 84 303 100 442 21 183 14 509 -15
707 -29 202 -44 211 -242 144 -207 -71 -388 -153 -563 -256 -76 -45 -77 -45
-85 -23 -39 100 -60 146 -113 250 -137 269 -333 524 -552 719 -88 78 -104 88
-137 88 -28 0 -47 -8 -73 -30z m397 -517 c96 -127 162 -233 231 -371 51 -103
113 -260 105 -265 -53 -35 -218 -179 -280 -245 -140 -148 -291 -368 -355 -519
-15 -35 -30 -63 -34 -63 -4 0 -17 24 -29 53 -91 219 -312 506 -531 690 l-55
46 33 98 c93 271 305 611 537 862 l59 63 121 -123 c66 -68 155 -170 198 -226z
m-1745 -429 c287 -106 628 -313 839 -508 82 -77 200 -219 268 -324 64 -99 147
-276 185 -395 l32 -99 -15 -96 c-9 -53 -19 -147 -23 -208 l-7 -110 -111 111
c-175 175 -370 293 -621 375 -138 44 -335 87 -451 97 -52 4 -83 12 -94 23 -22
22 -85 214 -109 332 -41 198 -53 469 -31 690 13 126 18 148 31 148 5 0 54 -16
107 -36z m2947 14 c24 -110 33 -461 14 -626 -21 -191 -99 -482 -139 -522 -11
-11 -43 -19 -96 -23 -215 -18 -507 -103 -715 -207 -118 -60 -242 -152 -355
-265 l-110 -110 -12 145 c-6 80 -17 172 -23 205 -11 55 -9 68 15 147 166 543
626 982 1306 1244 102 40 108 40 115 12z m-2989 -1328 c641 -51 1090 -304
1308 -739 15 -29 24 -57 19 -61 -12 -12 -145 -46 -263 -69 -172 -32 -331 -44
-504 -38 -573 19 -989 277 -1260 778 -38 70 -44 88 -31 92 17 7 262 35 345 40
127 8 265 6 386 -3z m3489 -15 c185 -22 174 -11 119 -113 -269 -499 -686 -759
-1250 -779 -87 -3 -206 -1 -280 6 -175 16 -471 76 -497 101 -18 17 95 205 189
315 108 126 306 265 484 338 178 74 409 127 635 147 133 12 439 4 600 -15z"/>
<path d="M2480 3575 l0 -85 80 0 80 0 0 85 0 85 -80 0 -80 0 0 -85z"/>
<path d="M2480 3255 l0 -85 80 0 80 0 0 85 0 85 -80 0 -80 0 0 -85z"/>
<path d="M2480 2935 l0 -85 80 0 80 0 0 85 0 85 -80 0 -80 0 0 -85z"/>
<path d="M1120 2961 c0 -68 22 -193 51 -289 25 -81 108 -262 121 -262 7 0 114
67 137 86 2 2 -12 36 -32 76 -63 129 -107 294 -107 398 l0 50 -85 0 -85 0 0
-59z"/>
<path d="M3830 2971 c0 -112 -59 -321 -122 -430 -12 -22 -20 -42 -18 -44 21
-17 131 -87 138 -87 13 0 96 181 121 262 29 96 51 221 51 289 l0 59 -85 0 -85
0 0 -49z"/>
</g>
</svg>
